<?xml version="1.0" encoding="utf-8"?>
<!-- Svg Vector Icons : http://www.onlinewebfonts.com/icon -->
<!DOCTYPE svg PUBLIC "-//W3C//DTD SVG 1.1//EN" "http://www.w3.org/Graphics/SVG/1.1/DTD/svg11.dtd">
<svg version="1.1" xmlns="http://www.w3.org/2000/svg" xmlns:xlink="http://www.w3.org/1999/xlink" x="0px" y="0px" viewBox="0 0 1000 1000" enable-background="new 0 0 1000 1000" xml:space="preserve">
<g><path fill="#ffffff" d="M896.6,26L500,422.6L103.4,26C82,4.7,47.4,4.7,26,26c-21.4,21.4-21.4,56,0,77.4L422.6,500L26,896.6c-21.4,21.4-21.4,56,0,77.4c21.4,21.4,56,21.4,77.4,0L500,577.4L896.6,974c21.4,21.4,56,21.4,77.4,0c21.4-21.4,21.4-56,0-77.4L577.4,500L974,103.4c21.4-21.4,21.4-56,0-77.4C952.6,4.7,918,4.7,896.6,26L896.6,26z"/></g>
</svg>